# AST/ASF file generated using VICON BodyLanguage
# -----------------------------------------------
:version 1.10
:name VICON
:units
  mass 1.0
  length 0.45
  angle deg
:documentation
   .ast/.asf automatically generated from VICON data using
   VICON BodyBuilder and BodyLanguage model FoxedUp or BRILLIANT.MOD
:root
   order TX TY TZ RX RY RZ
   axis XYZ
   position 0 0 0  
   orientation 0 0 0 
:bonedata
  begin
     id 1 
     name lhipjoint
     direction 0.660183 -0.676772 0.325788 
     length 2.75133 
     axis 0 0 0  XYZ
  end
  begin
     id 2 
     name lfemur
     direction 0.34202 -0.939693 0  
     length 7.70317  
     axis 0 0 20  XYZ
    dof rx ry rz
    limits (-160.0 20.0)
           (-70.0 70.0)
           (-60.0 70.0)
  end
  begin
     id 3 
     name ltibia
     direction 0.342105 -0.939662 0   
     length 7.18701   
     axis 0 0 20   XYZ
    dof rx
    limits (-10.0 170.0)
  end
  begin
     id 4 
     name lfoot
     direction 0.14163 -0.389126 0.910232   
     length 2.41719   
     axis -90 7.62852e-016 20   XYZ
    dof rx rz
    limits (-45.0 90.0)
           (-70.0 20.0)
  end
  begin
     id 5 
     name ltoes
     direction 1.53533e-011 -4.21926e-011 1   
     length 1.18611   
     axis -90 7.62852e-016 20   XYZ
    dof rx
    limits (-90.0 20.0)
  end
  begin
     id 6 
     name rhipjoint
     direction -0.6658 -0.67229 0.323631   
     length 2.76968  
     axis 0 0 0  XYZ 
  end
  begin
     id 7 
     name rfemur
     direction -0.34202 -0.939693 0   
     length 7.92547   
     axis 0 0 -20   XYZ
    dof rx ry rz
    limits (-160.0 20.0)
           (-70.0 70.0)
           (-70.0 60.0)
  end
  begin
     id 8 
     name rtibia
     direction -0.342022 -0.939692 0   
     length 7.22641   
     axis 0 0 -20   XYZ
    dof rx
    limits (-10.0 170.0)
 end
 begin
     id 9 
     name rfoot
     direction -0.105675 -0.29034 0.951071   
     length 2.48149  
     axis -90 -7.62852e-016 -20   XYZ
    dof rx rz
    limits (-45.0 90.0)
           (-20.0 70.0)
  end
  begin
     id 10 
     name rtoes
     direction -1.5349e-011 -4.21859e-011 1   
     length 1.23343   
     axis -90 -7.62852e-016 -20   XYZ
    dof rx
    limits (-90.0 20.0)
  end
  begin
     id 11 
     name lowerback
     direction 0.0104173 0.993624 -0.112266   
     length 2.00527   
     axis 0 0 0   XYZ
    dof rx ry rz
    limits (-20.0 45.0)
           (-30.0 30.0)
           (-30.0 30.0)
  end
  begin
     id 12 
     name upperback
     direction 0.00733149 0.999856 -0.0152913   
     length 2.01385   
     axis 0 0 0   XYZ
    dof rx ry rz
    limits (-20.0 45.0)
           (-30.0 30.0)
           (-30.0 30.0)
  end
  begin
     id 13 
     name thorax
     direction 0.0026304 0.999318 0.036841   
     length 2.03734   
     axis 0 0 0   XYZ
    dof rx ry rz
    limits (-20.0 45.0)
           (-30.0 30.0)
           (-30.0 30.0)
  end
  begin
     id 14 
     name lowerneck
     direction 0.0293154 0.998757 0.0403082   
     length 1.65303   
     axis 0 0 0   XYZ
    dof rx ry rz
    limits (-20.0 45.0)
           (-30.0 30.0)
           (-30.0 30.0)
  end
  begin
     id 15 
     name upperneck
     direction -0.0376619 0.998184 -0.0470083   
     length 1.60926   
     axis 0 0 0   XYZ
    dof rx ry rz
    limits (-20.0 45.0)
           (-30.0 30.0)
           (-30.0 30.0)
  end
  begin
     id 16
     name head
     direction -0.0170133 0.999635 -0.0209778  
     length 1.73625  
     axis 0 0 0   XYZ
    dof rx ry rz
    limits (-20.0 45.0)
           (-30.0 30.0)
           (-30.0 30.0)
  end
  begin
     id 17 
     name lclavicle
     direction 0.919857 0.39181 -0.0186333  
     length 3.75313  
     axis 0 0 0   XYZ
    dof ry rz
    limits (-20.0 10.0)
           (0.0 20.0)
  end
  begin
     id 18 
     name lhumerus
     direction 1 -4.48988e-011 1.44029e-027   
     length 5.49313   
     axis 180 -30 -90   XYZ
    dof rx ry rz
    limits (-60.0 90.0)
           (-90.0 90.0)
           (-90.0 90.0)
  end
  begin
     id 19
     name lradius
     direction 1 -4.48924e-011 7.46281e-027   
     length 3.29037   
     axis 180 -30 -90   XYZ
    dof rx
    limits (-10.0 170.0)
  end
  begin
     id 20
     name lwrist
     direction 1 -4.48955e-011 2.19879e-026   
     length 1.64519   
     axis -1.34358e-014 90 90   XYZ
    dof ry
    limits (-180.0 0.0)
 end
  begin
     id 21 
     name lhand
     direction 1 -4.48978e-011 4.39747e-026   
     length 0.729656   
     axis -2.80598e-014 90 90   XYZ
    dof rx rz
    limits (-90.0 90.0)
           (-45.0 45.0)
  end
  begin
     id 22 
     name lfingers
     direction 1 -4.49071e-011 8.79411e-026   
     length 0.588268   
     axis -5.61193e-014 90 90   XYZ
    dof rx
    limits (0.0 90.0)
  end
  begin
     id 23
     name lthumb
     direction 0.707107 -6.34817e-011 0.707107   
     length 0.844638   
     axis -90 45 -9.86923e-015   XYZ
    dof rx rz
    limits (-45.0 45.0)
           (-45.0 45.0)
  end
  begin
     id 24 
     name rclavicle
     direction -0.919898 0.388279 0.0550233   
     length 3.7171  
     axis 0 0 0   XYZ 
    dof ry rz
    limits (-10.0 20.0)
           (-20.0 0.0)
  end
  begin
     id 25 
     name rhumerus
     direction -1 -4.48968e-011 9.98372e-028  
     length 5.23684   
     axis 180 30 90   XYZ
    dof rx ry rz
    limits (-90.0 60.0)
           (-90.0 90.0)
           (-90.0 90.0)
  end
  begin
     id 26 
     name rradius
     direction -1 -4.48956e-011 1.01023e-026   
     length 3.38251   
     axis 180 30 90   XYZ
    dof rx
    limits (-10.0 170.0)
  end
  begin
     id 27 
     name rwrist
     direction -1 -4.4892e-011 2.19886e-026   
     length 1.69126   
     axis -1.34358e-014 -90 -90   XYZ
    dof ry
    limits (-180.0 0.0)
  end
  begin
     id 28
     name rhand
     direction -1 -4.49024e-011 4.39727e-026   
     length 0.691454   
     axis -2.80598e-014 -90 -90   XYZ
    dof rx rz
    limits (-90.0 90.0)
           (-45.0 45.0)
  end
  begin
     id 29
     name rfingers
     direction -1 -4.49097e-011 8.79388e-026   
     length 0.557468   
     axis -5.61193e-014 -90 -90   XYZ
    dof rx
    limits (0.0 90.0)
  end
  begin
     id 30
     name rthumb
     direction -0.707107 -6.34938e-011 0.707107   
     length 0.800416   
     axis -90 -45 9.86923e-015   XYZ
    dof rx rz
    limits (-45.0 45.0)
           (-45.0 45.0)
  end
:hierarchy
  begin
    root lhipjoint rhipjoint lowerback
    lhipjoint lfemur
    lfemur ltibia
    ltibia lfoot
    lfoot ltoes
    rhipjoint rfemur
    rfemur rtibia
    rtibia rfoot
    rfoot rtoes
    lowerback upperback
    upperback thorax
    thorax lowerneck lclavicle rclavicle
    lowerneck upperneck
    upperneck head
    lclavicle lhumerus
    lhumerus lradius
    lradius lwrist
    lwrist lhand lthumb
    lhand lfingers
    rclavicle rhumerus
    rhumerus rradius
    rradius rwrist
    rwrist rhand rthumb
    rhand rfingers
  end

#!OML:ASF H:\BabyWalks\Project 1\Capture day 1\Session 1\baby.ASF
:FULLY-SPECIFIED
:DEGREES
49
root -35.079 17.1079 -3.98041 -35.895 80.4415 -38.8861
lowerback 14.4735 1.66139 -0.986048
upperback 3.7844 2.20496 0.0740707
thorax -4.14589 1.15872 0.238607
lowerneck -2.87961 -1.35359 1.30177
upperneck -9.46911 -1.40312 3.09993
head -2.48077 -0.737898 0.778082
rclavicle 1.19271e-014 -1.74931e-014
rhumerus -54.9921 18.7903 -94.4105
rradius 43.5126
rwrist -4.21198
rhand -11.4131 -16.4843
rfingers 7.12502
rthumb 14.6226 -45.9488
lclavicle 1.19271e-014 -1.74931e-014
lhumerus -49.2948 -12.8663 84.659
lradius 52.2249
lwrist 6.18674
lhand 2.13218 11.7658
lfingers 7.12502
lthumb 27.631 39.7568
rfemur 13.6629 5.88012 29.366
rtibia 13.6583
rfoot -21.4918 -5.16146
rtoes -15.2961
lfemur -22.956 -5.31017 -11.0202
ltibia 46.3629
lfoot -26.0787 -20.0031
ltoes 14.2599
50
root -35.0161 17.1099 -3.9883 -34.5797 80.3868 -37.3913
lowerback 14.5201 1.74519 -1.36179
upperback 3.81825 2.25526 -0.0662848
thorax -4.14403 1.1865 0.293467
lowerneck -2.75113 -1.46577 1.16541
upperneck -9.4033 -1.52762 3.47299
head -2.47765 -0.80591 0.922524
rclavicle 3.1408e-014 -2.70347e-014
rhumerus -54.7103 18.8249 -94.418
rradius 43.5481
rwrist -4.17549
rhand -11.5048 -16.5558
rfingers 7.12502
rthumb 14.5342 -46.0267
lclavicle 3.1408e-014 -2.70347e-014
lhumerus -48.8908 -12.5092 84.1998
lradius 52.1508
lwrist 6.13394
lhand 1.70083 11.6972
lfingers 7.12502
lthumb 27.2184 39.7536
rfemur 12.8612 5.55353 28.9701
rtibia 16.0159
rfoot -21.8853 -4.57341
rtoes -16.1092
lfemur -22.3533 -5.22095 -11.305
ltibia 46.1086
lfoot -26.3132 -19.9853
ltoes 14.3087
51
root -34.9547 17.1137 -3.99598 -33.3883 80.3293 -36.015
lowerback 14.5955 1.81508 -1.71835
upperback 3.85373 2.28984 -0.205125
thorax -4.15524 1.20661 0.340848
lowerneck -2.61217 -1.57432 1.04852
upperneck -9.33493 -1.64891 3.8311
head -2.47542 -0.872815 1.05939
rclavicle -2.74323e-014 -1.27222e-014
rhumerus -54.4165 18.8455 -94.4175
rradius 43.5992
rwrist -4.13737
rhand -11.6358 -16.627
rfingers 7.12502
rthumb 14.4079 -46.1069
lclavicle -2.74323e-014 -1.27222e-014
lhumerus -48.4762 -12.1342 83.7337
lradius 52.0557
lwrist 6.05851
lhand 1.25368 11.6386
lfingers 7.12502
lthumb 26.7906 39.7613
rfemur 12.0054 5.15412 28.5555
rtibia 18.4524
rfoot -22.1574 -3.87663
rtoes -17.0043
lfemur -21.7365 -5.13803 -11.575
ltibia 45.8185
lfoot -26.5277 -19.9674
ltoes 14.3187
52
root -34.8948 17.1187 -4.0035 -32.3303 80.2706 -34.7623
lowerback 14.6977 1.87289 -2.05514
upperback 3.89489 2.31117 -0.340321
thorax -4.17418 1.22035 0.382343
lowerneck -2.47546 -1.67984 0.958009
upperneck -9.2557 -1.76905 4.16472
head -2.46915 -0.939391 1.18416
rclavicle 1.31198e-014 -1.03368e-014
rhumerus -54.1155 18.8519 -94.4064
rradius 43.6775
rwrist -4.11689
rhand -11.7892 -16.7051
rfingers 7.12502
rthumb 14.2602 -46.1955
lclavicle 1.31198e-014 -1.03368e-014
lhumerus -48.0528 -11.7562 83.2696
lradius 51.9513
lwrist 5.96586
lhand 0.802875 11.6004
lfingers 7.12502
lthumb 26.3592 39.7884
rfemur 11.1116 4.69986 28.1249
rtibia 20.9482
rfoot -22.2953 -3.05986
rtoes -17.8769
lfemur -21.1025 -5.06325 -11.83
ltibia 45.4979
lfoot -26.7137 -19.9483
ltoes 14.3146
53
root -34.8356 17.1268 -4.01077 -31.3919 80.2158 -33.6231
lowerback 14.8207 1.91703 -2.37184
upperback 3.94114 2.317 -0.472589
thorax -4.19794 1.22656 0.417641
lowerneck -2.35722 -1.78131 0.893722
upperneck -9.1502 -1.88812 4.46935
head -2.45085 -1.00515 1.2948
rclavicle 2.54444e-014 -2.54444e-014
rhumerus -53.8117 18.8465 -94.3821
rradius 43.8089
rwrist -4.19037
rhand -11.9048 -16.8123
rfingers 7.12502
rthumb 14.1487 -46.3105
lclavicle 2.54444e-014 -2.54444e-014
lhumerus -47.6251 -11.382 82.8115
lradius 51.8448
lwrist 5.85737
lhand 0.358905 11.5574
lfingers 7.12502
lthumb 25.9341 39.8083
rfemur 10.1667 4.21612 27.6768
rtibia 23.4961
rfoot -22.2579 -2.11769
rtoes -18.6993
lfemur -20.4476 -4.99822 -12.0742
ltibia 45.1371
lfoot -26.8763 -19.9229
ltoes 14.2568
54
root -34.7777 17.1352 -4.01799 -30.5493 80.1677 -32.5749
lowerback 14.9608 1.94826 -2.66937
upperback 3.99325 2.30811 -0.603746
thorax -4.22346 1.22562 0.445422
lowerneck -2.26644 -1.87757 0.852256
upperneck -9.00903 -2.00498 4.74913
head -2.41583 -1.06914 1.39269
rclavicle 7.15625e-015 -7.95139e-016
rhumerus -53.5099 18.8332 -94.3486
rradius 44.0035
rwrist -4.38203
rhand -11.9572 -16.9691
rfingers 7.12502
rthumb 14.0982 -46.4708
lclavicle 7.15625e-015 -7.95139e-016
lhumerus -47.1938 -11.0264 82.365
lradius 51.7433
lwrist 5.73404
lhand -0.0655966 11.5171
lfingers 7.12502
lthumb 25.5275 39.8269
rfemur 9.19557 3.7092 27.2092
rtibia 26.0799
rfoot -22.0533 -1.07032
rtoes -19.4605
lfemur -19.7831 -4.94071 -12.3122
ltibia 44.7468
lfoot -27.0089 -19.8972
ltoes 14.211
55
root -34.7195 17.1456 -4.02513 -29.7362 80.1188 -31.5477
lowerback 15.1098 1.9711 -2.9539
upperback 4.05365 2.2898 -0.73458
thorax -4.24404 1.22013 0.467743
lowerneck -2.22251 -1.97066 0.840358
upperneck -8.81555 -2.12477 4.9913
head -2.35525 -1.13324 1.47178
rclavicle -1.86858e-014 8.74653e-015
rhumerus -53.2197 18.8225 -94.3128
rradius 44.2618
rwrist -4.69104
rhand -11.9543 -17.1616
rfingers 7.12502
rthumb 14.101 -46.6631
lclavicle -1.86858e-014 8.74653e-015
lhumerus -46.762 -10.6988 81.9351
lradius 51.6544
lwrist 5.60598
lhand -0.459195 11.4873
lfingers 7.12502
lthumb 25.1505 39.8506
rfemur 8.19669 3.21313 26.7178
rtibia 28.6853
rfoot -21.6549 0.0887558
rtoes -19.9862
lfemur -19.093 -4.88079 -12.5514
ltibia 44.3245
lfoot -27.1185 -19.8717
ltoes 14.1898
56
root -34.6616 17.1563 -4.03224 -28.9302 80.074 -30.5257
lowerback 15.2646 1.9854 -3.22841
upperback 4.11744 2.26118 -0.866159
thorax -4.26305 1.20962 0.485384
lowerneck -2.19405 -2.05461 0.832732
upperneck -8.59343 -2.23589 5.22108
head -2.28266 -1.19199 1.54515
rclavicle -1.82882e-014 2.62396e-014
rhumerus -52.9494 18.8201 -94.2795
rradius 44.5832
rwrist -5.1219
rhand -11.8845 -17.3843
rfingers 7.12502
rthumb 14.1683 -46.8811
lclavicle -1.82882e-014 2.62396e-014
lhumerus -46.3359 -10.4159 81.5294
lradius 51.5831
lwrist 5.47639
lhand -0.811769 11.4536
lfingers 7.12502
lthumb 24.8126 39.8638
rfemur 7.18134 2.74041 26.2035
rtibia 31.2907
rfoot -21.0509 1.29439
rtoes -20.3531
lfemur -18.3955 -4.8187 -12.7961
ltibia 43.8842
lfoot -27.2124 -19.845
ltoes 14.1742
57
root -34.6037 17.167 -4.03922 -28.091 80.0376 -29.4728
lowerback 15.4186 1.99137 -3.49892
upperback 4.18233 2.2216 -1.00076
thorax -4.2795 1.19376 0.49968
lowerneck -2.17466 -2.13016 0.8255
upperneck -8.34673 -2.33889 5.44086
head -2.20062 -1.24568 1.61439
rclavicle 0 6.36111e-015
rhumerus -52.7082 18.835 -94.2586
rradius 44.9589
rwrist -5.64638
rhand -11.775 -17.6151
rfingers 7.12502
rthumb 14.2738 -47.1046
lclavicle 0 6.36111e-015
lhumerus -45.921 -10.1876 81.1514
lradius 51.5353
lwrist 5.34518
lhand -1.12639 11.4183
lfingers 7.12502
lthumb 24.5111 39.8697
rfemur 6.15007 2.30506 25.6664
rtibia 33.8877
rfoot -20.2575 2.48726
rtoes -20.5314
lfemur -17.6948 -4.75203 -13.0531
ltibia 43.4238
lfoot -27.2838 -19.8225
ltoes 14.1669
58
root -34.5457 17.1772 -4.04599 -27.1771 80.0126 -28.3507
lowerback 15.5635 1.99119 -3.775
upperback 4.24951 2.17296 -1.13867
thorax -4.28787 1.17347 0.5157
lowerneck -2.15572 -2.19676 0.819373
upperneck -8.08797 -2.43234 5.64734
head -2.11497 -1.29381 1.67868
rclavicle -2.46493e-014 -1.59028e-015
rhumerus -52.5013 18.8739 -94.2561
rradius 45.3738
rwrist -6.22283
rhand -11.6595 -17.8265
rfingers 7.12502
rthumb 14.3851 -47.308
lclavicle -2.46493e-014 -1.59028e-015
lhumerus -45.5149 -10.0217 80.8038
lradius 51.5144
lwrist 5.21591
lhand -1.38585 11.3891
lfingers 7.12502
lthumb 24.2623 39.8739
rfemur 5.10482 1.9166 25.1063
rtibia 36.4609
rfoot -19.3013 3.61781
rtoes -20.4626
lfemur -16.9998 -4.67522 -13.3293
ltibia 42.9538
lfoot -27.3449 -19.8089
ltoes 14.1599
